<mxfile host="Electron" agent="Mozilla/5.0 (Windows NT 10.0; Win64; x64) AppleWebKit/537.36 (KHTML, like Gecko) draw.io/24.7.17 Chrome/128.0.6613.36 Electron/32.0.1 Safari/537.36" version="24.7.17">
  <diagram name="第 1 页" id="4-OepbygHkgvxUMG66ia">
    <mxGraphModel dx="577" dy="438" grid="1" gridSize="10" guides="1" tooltips="1" connect="1" arrows="1" fold="1" page="1" pageScale="1" pageWidth="827" pageHeight="1169" math="0" shadow="0">
      <root>
        <mxCell id="0" />
        <mxCell id="1" parent="0" />
        <mxCell id="HdYI195g3e0J9qLKTOH6-3" style="edgeStyle=orthogonalEdgeStyle;rounded=0;orthogonalLoop=1;jettySize=auto;html=1;exitX=0.5;exitY=1;exitDx=0;exitDy=0;entryX=0.5;entryY=0;entryDx=0;entryDy=0;" edge="1" parent="1" source="HdYI195g3e0J9qLKTOH6-1" target="HdYI195g3e0J9qLKTOH6-2">
          <mxGeometry relative="1" as="geometry" />
        </mxCell>
        <mxCell id="HdYI195g3e0J9qLKTOH6-4" value="每个用户平均点击20次" style="edgeLabel;html=1;align=center;verticalAlign=middle;resizable=0;points=[];" vertex="1" connectable="0" parent="HdYI195g3e0J9qLKTOH6-3">
          <mxGeometry x="-0.2333" relative="1" as="geometry">
            <mxPoint y="7" as="offset" />
          </mxGeometry>
        </mxCell>
        <mxCell id="HdYI195g3e0J9qLKTOH6-1" value="亿级流量平台场景&lt;div&gt;(每日被点击上亿次)&lt;/div&gt;" style="rounded=0;whiteSpace=wrap;html=1;fillColor=#d5e8d4;strokeColor=#82b366;" vertex="1" parent="1">
          <mxGeometry x="80" y="30" width="120" height="60" as="geometry" />
        </mxCell>
        <mxCell id="HdYI195g3e0J9qLKTOH6-6" style="edgeStyle=orthogonalEdgeStyle;rounded=0;orthogonalLoop=1;jettySize=auto;html=1;exitX=1;exitY=0.5;exitDx=0;exitDy=0;entryX=0;entryY=0.5;entryDx=0;entryDy=0;" edge="1" parent="1" source="HdYI195g3e0J9qLKTOH6-2" target="HdYI195g3e0J9qLKTOH6-5">
          <mxGeometry relative="1" as="geometry" />
        </mxCell>
        <mxCell id="HdYI195g3e0J9qLKTOH6-8" value="付费转化率10%" style="edgeLabel;html=1;align=center;verticalAlign=middle;resizable=0;points=[];" vertex="1" connectable="0" parent="HdYI195g3e0J9qLKTOH6-6">
          <mxGeometry x="0.0519" y="-1" relative="1" as="geometry">
            <mxPoint x="-1" y="-1" as="offset" />
          </mxGeometry>
        </mxCell>
        <mxCell id="HdYI195g3e0J9qLKTOH6-2" value="日活用户约500万" style="rounded=0;whiteSpace=wrap;html=1;" vertex="1" parent="1">
          <mxGeometry x="80" y="150" width="120" height="60" as="geometry" />
        </mxCell>
        <mxCell id="HdYI195g3e0J9qLKTOH6-13" style="edgeStyle=orthogonalEdgeStyle;rounded=0;orthogonalLoop=1;jettySize=auto;html=1;exitX=0.5;exitY=1;exitDx=0;exitDy=0;entryX=0.5;entryY=0;entryDx=0;entryDy=0;curved=1;" edge="1" parent="1" source="HdYI195g3e0J9qLKTOH6-5" target="HdYI195g3e0J9qLKTOH6-9">
          <mxGeometry relative="1" as="geometry" />
        </mxCell>
        <mxCell id="HdYI195g3e0J9qLKTOH6-15" value="大促一般集中在秒杀活动前几分钟产生" style="edgeLabel;html=1;align=center;verticalAlign=middle;resizable=0;points=[];" vertex="1" connectable="0" parent="HdYI195g3e0J9qLKTOH6-13">
          <mxGeometry x="0.2317" y="2" relative="1" as="geometry">
            <mxPoint x="-6" y="3" as="offset" />
          </mxGeometry>
        </mxCell>
        <mxCell id="HdYI195g3e0J9qLKTOH6-14" style="edgeStyle=orthogonalEdgeStyle;rounded=0;orthogonalLoop=1;jettySize=auto;html=1;exitX=0.5;exitY=1;exitDx=0;exitDy=0;entryX=0.5;entryY=0;entryDx=0;entryDy=0;curved=1;" edge="1" parent="1" source="HdYI195g3e0J9qLKTOH6-5" target="HdYI195g3e0J9qLKTOH6-10">
          <mxGeometry relative="1" as="geometry" />
        </mxCell>
        <mxCell id="HdYI195g3e0J9qLKTOH6-16" value="正常情况在3-4个小时个小时产生" style="edgeLabel;html=1;align=center;verticalAlign=middle;resizable=0;points=[];" vertex="1" connectable="0" parent="HdYI195g3e0J9qLKTOH6-14">
          <mxGeometry x="0.0349" relative="1" as="geometry">
            <mxPoint x="8" y="5" as="offset" />
          </mxGeometry>
        </mxCell>
        <mxCell id="HdYI195g3e0J9qLKTOH6-5" value="日均约20万订单" style="rounded=0;whiteSpace=wrap;html=1;" vertex="1" parent="1">
          <mxGeometry x="354" y="150" width="120" height="60" as="geometry" />
        </mxCell>
        <mxCell id="HdYI195g3e0J9qLKTOH6-20" style="edgeStyle=orthogonalEdgeStyle;rounded=0;orthogonalLoop=1;jettySize=auto;html=1;exitX=0.5;exitY=1;exitDx=0;exitDy=0;entryX=0.5;entryY=0;entryDx=0;entryDy=0;" edge="1" parent="1" source="HdYI195g3e0J9qLKTOH6-9" target="HdYI195g3e0J9qLKTOH6-17">
          <mxGeometry relative="1" as="geometry" />
        </mxCell>
        <mxCell id="HdYI195g3e0J9qLKTOH6-24" value="每秒300单左右" style="edgeLabel;html=1;align=center;verticalAlign=middle;resizable=0;points=[];" vertex="1" connectable="0" parent="HdYI195g3e0J9qLKTOH6-20">
          <mxGeometry x="0.7626" y="1" relative="1" as="geometry">
            <mxPoint as="offset" />
          </mxGeometry>
        </mxCell>
        <mxCell id="HdYI195g3e0J9qLKTOH6-21" style="edgeStyle=orthogonalEdgeStyle;rounded=0;orthogonalLoop=1;jettySize=auto;html=1;exitX=0.5;exitY=1;exitDx=0;exitDy=0;entryX=0.5;entryY=0;entryDx=0;entryDy=0;" edge="1" parent="1" source="HdYI195g3e0J9qLKTOH6-9" target="HdYI195g3e0J9qLKTOH6-18">
          <mxGeometry relative="1" as="geometry" />
        </mxCell>
        <mxCell id="HdYI195g3e0J9qLKTOH6-25" value="每秒300单左右" style="edgeLabel;html=1;align=center;verticalAlign=middle;resizable=0;points=[];" vertex="1" connectable="0" parent="HdYI195g3e0J9qLKTOH6-21">
          <mxGeometry x="0.35" relative="1" as="geometry">
            <mxPoint as="offset" />
          </mxGeometry>
        </mxCell>
        <mxCell id="HdYI195g3e0J9qLKTOH6-22" style="edgeStyle=orthogonalEdgeStyle;rounded=0;orthogonalLoop=1;jettySize=auto;html=1;exitX=0.5;exitY=1;exitDx=0;exitDy=0;entryX=0.5;entryY=0;entryDx=0;entryDy=0;" edge="1" parent="1" source="HdYI195g3e0J9qLKTOH6-9" target="HdYI195g3e0J9qLKTOH6-19">
          <mxGeometry relative="1" as="geometry" />
        </mxCell>
        <mxCell id="HdYI195g3e0J9qLKTOH6-23" value="假设有三台服务器处理这高并发流量" style="edgeLabel;html=1;align=center;verticalAlign=middle;resizable=0;points=[];" vertex="1" connectable="0" parent="HdYI195g3e0J9qLKTOH6-22">
          <mxGeometry x="-0.8371" relative="1" as="geometry">
            <mxPoint as="offset" />
          </mxGeometry>
        </mxCell>
        <mxCell id="HdYI195g3e0J9qLKTOH6-26" value="每秒300单左右" style="edgeLabel;html=1;align=center;verticalAlign=middle;resizable=0;points=[];" vertex="1" connectable="0" parent="HdYI195g3e0J9qLKTOH6-22">
          <mxGeometry x="0.7647" y="-1" relative="1" as="geometry">
            <mxPoint as="offset" />
          </mxGeometry>
        </mxCell>
        <mxCell id="HdYI195g3e0J9qLKTOH6-9" value="每秒1000单左右" style="rounded=0;whiteSpace=wrap;html=1;" vertex="1" parent="1">
          <mxGeometry x="149" y="320" width="120" height="60" as="geometry" />
        </mxCell>
        <mxCell id="HdYI195g3e0J9qLKTOH6-10" value="每秒数十单" style="rounded=0;whiteSpace=wrap;html=1;" vertex="1" parent="1">
          <mxGeometry x="559" y="320" width="120" height="60" as="geometry" />
        </mxCell>
        <mxCell id="HdYI195g3e0J9qLKTOH6-17" value="秒杀系统&lt;div&gt;（4核8G）&lt;/div&gt;" style="rounded=0;whiteSpace=wrap;html=1;" vertex="1" parent="1">
          <mxGeometry x="10" y="460" width="120" height="60" as="geometry" />
        </mxCell>
        <mxCell id="HdYI195g3e0J9qLKTOH6-18" value="秒杀系统&lt;div&gt;（4核8G）&lt;/div&gt;" style="rounded=0;whiteSpace=wrap;html=1;" vertex="1" parent="1">
          <mxGeometry x="149" y="460" width="120" height="60" as="geometry" />
        </mxCell>
        <mxCell id="HdYI195g3e0J9qLKTOH6-29" style="edgeStyle=orthogonalEdgeStyle;rounded=0;orthogonalLoop=1;jettySize=auto;html=1;exitX=0.5;exitY=1;exitDx=0;exitDy=0;" edge="1" parent="1" source="HdYI195g3e0J9qLKTOH6-19" target="HdYI195g3e0J9qLKTOH6-28">
          <mxGeometry relative="1" as="geometry" />
        </mxCell>
        <mxCell id="HdYI195g3e0J9qLKTOH6-30" value="每个订单对象大约1KB" style="edgeLabel;html=1;align=center;verticalAlign=middle;resizable=0;points=[];" vertex="1" connectable="0" parent="HdYI195g3e0J9qLKTOH6-29">
          <mxGeometry x="-0.2222" y="1" relative="1" as="geometry">
            <mxPoint as="offset" />
          </mxGeometry>
        </mxCell>
        <mxCell id="HdYI195g3e0J9qLKTOH6-19" value="秒杀系统&lt;div&gt;（4核8G）&lt;/div&gt;" style="rounded=0;whiteSpace=wrap;html=1;" vertex="1" parent="1">
          <mxGeometry x="290" y="460" width="120" height="60" as="geometry" />
        </mxCell>
        <mxCell id="HdYI195g3e0J9qLKTOH6-32" value="" style="edgeStyle=orthogonalEdgeStyle;rounded=0;orthogonalLoop=1;jettySize=auto;html=1;" edge="1" parent="1" source="HdYI195g3e0J9qLKTOH6-28" target="HdYI195g3e0J9qLKTOH6-31">
          <mxGeometry relative="1" as="geometry" />
        </mxCell>
        <mxCell id="HdYI195g3e0J9qLKTOH6-33" value="在下单过程中，除了订单对象会产生，还会产生如优惠券对象等，&lt;div&gt;所以这里根据实际情况将其放大20倍&lt;/div&gt;" style="edgeLabel;html=1;align=center;verticalAlign=middle;resizable=0;points=[];" vertex="1" connectable="0" parent="HdYI195g3e0J9qLKTOH6-32">
          <mxGeometry x="-0.1944" relative="1" as="geometry">
            <mxPoint as="offset" />
          </mxGeometry>
        </mxCell>
        <mxCell id="HdYI195g3e0J9qLKTOH6-28" value="每秒就会有300KB订单对象产生" style="rounded=0;whiteSpace=wrap;html=1;" vertex="1" parent="1">
          <mxGeometry x="290" y="580" width="120" height="60" as="geometry" />
        </mxCell>
        <mxCell id="HdYI195g3e0J9qLKTOH6-35" value="" style="edgeStyle=orthogonalEdgeStyle;rounded=0;orthogonalLoop=1;jettySize=auto;html=1;" edge="1" parent="1" source="HdYI195g3e0J9qLKTOH6-31" target="HdYI195g3e0J9qLKTOH6-34">
          <mxGeometry relative="1" as="geometry" />
        </mxCell>
        <mxCell id="HdYI195g3e0J9qLKTOH6-36" value="在下单过程中，除了下单操作，还会涉及到如订单查询等操作，&lt;div&gt;所以这里再将其放大10倍&lt;/div&gt;" style="edgeLabel;html=1;align=center;verticalAlign=middle;resizable=0;points=[];" vertex="1" connectable="0" parent="HdYI195g3e0J9qLKTOH6-35">
          <mxGeometry x="-0.1944" relative="1" as="geometry">
            <mxPoint as="offset" />
          </mxGeometry>
        </mxCell>
        <mxCell id="HdYI195g3e0J9qLKTOH6-31" value="每秒就会有约6MB(300KB*20)&lt;div&gt;对象产生&lt;/div&gt;" style="rounded=0;whiteSpace=wrap;html=1;" vertex="1" parent="1">
          <mxGeometry x="290" y="700" width="120" height="60" as="geometry" />
        </mxCell>
        <mxCell id="HdYI195g3e0J9qLKTOH6-38" value="" style="edgeStyle=orthogonalEdgeStyle;rounded=0;orthogonalLoop=1;jettySize=auto;html=1;" edge="1" parent="1" source="HdYI195g3e0J9qLKTOH6-34" target="HdYI195g3e0J9qLKTOH6-37">
          <mxGeometry relative="1" as="geometry" />
        </mxCell>
        <mxCell id="HdYI195g3e0J9qLKTOH6-34" value="每秒就会有约60MB(6MB*10)&lt;div&gt;对象产生&lt;/div&gt;" style="rounded=0;whiteSpace=wrap;html=1;" vertex="1" parent="1">
          <mxGeometry x="290" y="820" width="120" height="60" as="geometry" />
        </mxCell>
        <mxCell id="HdYI195g3e0J9qLKTOH6-40" value="" style="edgeStyle=orthogonalEdgeStyle;rounded=0;orthogonalLoop=1;jettySize=auto;html=1;" edge="1" parent="1" source="HdYI195g3e0J9qLKTOH6-37" target="HdYI195g3e0J9qLKTOH6-39">
          <mxGeometry relative="1" as="geometry" />
        </mxCell>
        <mxCell id="HdYI195g3e0J9qLKTOH6-37" value="1秒后，这60MB对象大多数情况下会直接在Eden区被回收" style="rounded=0;whiteSpace=wrap;html=1;fillColor=#f8cecc;strokeColor=#b85450;" vertex="1" parent="1">
          <mxGeometry x="290" y="920" width="120" height="60" as="geometry" />
        </mxCell>
        <mxCell id="HdYI195g3e0J9qLKTOH6-39" value="在JVM参数设置不当或者不设置的情况下，这些对象很可能直接从Eden区转移到老年代中" style="rounded=0;whiteSpace=wrap;html=1;fillColor=#f8cecc;strokeColor=#b85450;" vertex="1" parent="1">
          <mxGeometry x="70" y="920" width="170" height="60" as="geometry" />
        </mxCell>
      </root>
    </mxGraphModel>
  </diagram>
</mxfile>
